<?xml version="1.0" standalone="no"?>
<!DOCTYPE svg PUBLIC "-//W3C//DTD SVG 20010904//EN"
 "http://www.w3.org/TR/2001/REC-SVG-20010904/DTD/svg10.dtd">
<svg version="1.0" xmlns="http://www.w3.org/2000/svg"
 width="512.000000pt" height="512.000000pt" viewBox="0 0 512.000000 512.000000"
 preserveAspectRatio="xMidYMid meet">
<metadata>
Created by potrace 1.11, written by Peter Selinger 2001-2013
</metadata>
<g transform="translate(0.000000,512.000000) scale(0.100000,-0.100000)"
fill="#000000" stroke="none">
<path d="M2028 4935 c-228 -60 -398 -221 -475 -450 -27 -79 -27 -85 -28 -342
0 -318 -10 -296 135 -301 l100 -4 0 -39 0 -39 -87 0 c-110 0 -160 -21 -200
-81 -28 -42 -28 -44 -31 -223 -4 -201 5 -245 59 -290 40 -34 88 -46 182 -46
l77 0 1 -132 c1 -157 2 -170 30 -225 22 -43 62 -84 179 -183 36 -30 70 -60 77
-66 9 -9 9 -29 2 -80 -5 -38 -12 -87 -15 -109 -2 -22 -7 -51 -9 -65 -2 -14 -7
-45 -10 -70 -4 -25 -10 -48 -13 -52 -4 -3 -101 -43 -217 -87 -115 -45 -219
-86 -230 -91 -11 -4 -45 -17 -75 -28 -30 -11 -154 -59 -275 -106 -121 -48
-256 -100 -300 -117 -185 -70 -249 -119 -307 -233 -30 -58 -32 -67 -36 -208
l-4 -148 41 0 41 0 0 -80 0 -80 -40 0 -41 0 3 -380 c3 -349 4 -381 21 -397 17
-17 111 -18 1960 -21 1068 -1 1952 0 1964 3 52 13 53 19 53 627 0 629 -1 635
-67 735 -20 31 -57 70 -82 89 -48 35 -82 49 -611 255 -173 67 -398 154 -500
194 l-185 72 -12 69 c-6 38 -14 92 -17 119 -6 49 -10 76 -22 144 -4 25 -1 38
13 50 10 9 63 55 119 103 69 60 109 103 130 140 28 51 29 58 32 206 l4 152 86
0 c109 0 159 21 199 81 28 42 28 44 31 223 3 146 0 188 -13 221 -31 82 -94
115 -220 115 l-85 0 0 38 c0 34 4 40 35 55 21 10 37 26 41 42 3 13 4 116 2
227 -5 222 -16 271 -78 363 -75 109 -200 191 -320 209 -19 3 -44 7 -55 10 -11
2 -42 7 -70 11 -27 5 -53 9 -57 11 -5 1 -19 2 -32 3 -23 1 -24 4 -28 96 -4
134 4 129 -218 133 l-180 3 0 -40 0 -41 -80 0 -80 0 0 40 0 41 -64 -2 c-36 -1
-102 -12 -148 -24z"/>
</g>
</svg>
